<svg xmlns="http://www.w3.org/2000/svg" xmlns:xlink="http://www.w3.org/1999/xlink" width="1920" height="1080" viewBox="0 0 1920 1080"><defs><style>.a{clip-path:url(#h);}.b{fill:#37474f;}.c,.d,.f,.g,.j,.k,.m{fill:#fff;}.c,.d,.f{font-size:14.4px;}.c,.d,.h,.j,.m{font-family:Roboto-Bold, Roboto;font-weight:700;}.c{opacity:0.7;}.e{fill:#3b86ff;}.f,.i,.l,.n{font-family:Roboto-Regular, Roboto;}.h,.i{fill:#43425d;}.h{font-size:35px;}.i,.j,.n{font-size:18px;}.k{stroke:#858585;stroke-width:0.5px;}.l{fill:#262626;font-size:20px;opacity:0.8;}.m{font-size:25px;}.n{fill:#707070;}.o{stroke:none;}.p{fill:none;}.q{fill:#f9f9f9;}.r{filter:url(#e);}.s{filter:url(#c);}.t{filter:url(#a);}</style><filter id="a" x="825" y="437" width="270" height="273" filterUnits="userSpaceOnUse"><feOffset dy="6" input="SourceAlpha"/><feGaussianBlur stdDeviation="5" result="b"/><feFlood flood-color="#4b4b4b" flood-opacity="0.161"/><feComposite operator="in" in2="b"/><feComposite in="SourceGraphic"/></filter><filter id="c" x="1174" y="437" width="270" height="273" filterUnits="userSpaceOnUse"><feOffset dy="6" input="SourceAlpha"/><feGaussianBlur stdDeviation="5" result="d"/><feFlood flood-color="#4b4b4b" flood-opacity="0.161"/><feComposite operator="in" in2="d"/><feComposite in="SourceGraphic"/></filter><filter id="e" x="476" y="437" width="270" height="273" filterUnits="userSpaceOnUse"><feOffset dy="6" input="SourceAlpha"/><feGaussianBlur stdDeviation="5" result="f"/><feFlood flood-color="#3b3b3b" flood-opacity="0.161"/><feComposite operator="in" in2="f"/><feComposite in="SourceGraphic"/></filter><clipPath id="h"><rect width="1920" height="1080"/></clipPath></defs><g id="g" class="a"><rect class="q" width="1920" height="1080"/><rect class="b" width="1920" height="64"/><text class="c" transform="translate(1475 37)"><tspan x="0" y="0">Acerca de mi</tspan></text><text class="c" transform="translate(1589 37)"><tspan x="0" y="0">Portafolio</tspan></text><text class="d" transform="translate(1682 37)"><tspan x="0" y="0">Contacto</tspan></text><g transform="translate(-3)"><rect class="e" width="130" height="30" rx="15" transform="translate(1773 17)"/><text class="f" transform="translate(1793 37)"><tspan x="0" y="0">Mi GitHub</tspan></text><path class="g" d="M6.69,24.1c0,.083-.093.149-.21.149-.133.012-.226-.054-.226-.149s.093-.149.21-.149S6.69,24.009,6.69,24.1Zm-1.254-.186c-.028.083.052.178.173.2a.187.187,0,0,0,.25-.083c.024-.083-.052-.178-.173-.215A.2.2,0,0,0,5.435,23.918Zm1.782-.07c-.117.029-.2.108-.185.2s.117.136.238.108.2-.108.185-.19S7.335,23.835,7.218,23.848ZM9.871,8A9.794,9.794,0,0,0,0,18.091a10.353,10.353,0,0,0,6.835,9.892c.516.1.7-.232.7-.5s-.012-1.671-.012-2.539c0,0-2.823.62-3.415-1.232,0,0-.46-1.2-1.121-1.514,0,0-.923-.649.065-.637A2.12,2.12,0,0,1,4.6,22.628a2.1,2.1,0,0,0,2.94.864A2.321,2.321,0,0,1,8.19,22.1c-2.254-.256-4.528-.591-4.528-4.57a3.176,3.176,0,0,1,.952-2.436,4,4,0,0,1,.1-2.808C5.56,12.016,7.5,13.4,7.5,13.4a9.3,9.3,0,0,1,5.065,0s1.94-1.39,2.782-1.117a4,4,0,0,1,.1,2.808,3.252,3.252,0,0,1,1.04,2.436c0,3.991-2.375,4.309-4.629,4.57a2.479,2.479,0,0,1,.685,1.919c0,1.394-.012,3.118-.012,3.457,0,.269.185.6.7.5A10.26,10.26,0,0,0,20,18.091,10.008,10.008,0,0,0,9.871,8ZM3.919,22.264c-.052.041-.04.136.028.215s.157.1.21.041.04-.136-.028-.215S3.972,22.21,3.919,22.264Zm-.435-.335c-.028.054.012.12.093.161a.118.118,0,0,0,.173-.029c.028-.054-.012-.12-.093-.161C3.577,21.875,3.512,21.887,3.484,21.929ZM4.79,23.4c-.065.054-.04.178.052.256.093.1.21.108.262.041s.028-.178-.052-.256C4.964,23.347,4.843,23.335,4.79,23.4Zm-.46-.608c-.065.041-.065.149,0,.244s.173.136.226.1a.192.192,0,0,0,0-.256c-.056-.1-.161-.136-.226-.083Z" transform="translate(1864 14)"/></g><text class="h" transform="translate(797 161)"><tspan x="0" y="0">CONECTA CONMIGO</tspan></text><text class="i" transform="translate(960 203)"><tspan x="-377.697" y="0">Si tienes alguna pregunta, o simplemente deseas saludarme, no dudes en ponerte en contacto </tspan><tspan x="-388.362" y="30">conmigo. A continuación están mi curriculum vitae, mis páginas sociales y mi correo electrónico: </tspan><tspan x="-113.067" y="60">carlosarroyoam@gmail.com</tspan></text><g transform="translate(0 -60)"><rect class="e" width="197" height="50" rx="4" transform="translate(862 392)"/><text class="j" transform="translate(943 423)"><tspan x="-61.958" y="0">Enviar un email</tspan></text><path class="g" d="M21.75,64H2.25A2.385,2.385,0,0,0,0,66.5v15A2.385,2.385,0,0,0,2.25,84h19.5A2.385,2.385,0,0,0,24,81.5v-15A2.385,2.385,0,0,0,21.75,64Zm0,2.5v2.125c-1.051.951-2.727,2.43-6.309,5.546-.789.69-2.353,2.348-3.441,2.328-1.088.02-2.652-1.638-3.441-2.328-3.582-3.116-5.258-4.6-6.309-5.546V66.5Zm-19.5,15V71.833c1.074.951,2.6,2.284,4.919,4.3C8.194,77.034,9.988,79.012,12,79c2,.012,3.774-1.937,4.831-2.862,2.322-2.02,3.845-3.354,4.919-4.3V81.5Z" transform="translate(1016 343)"/></g><g transform="translate(20 -26)"><g class="t" transform="matrix(1, 0, 0, 1, -20, 26)"><g class="k" transform="translate(840 446)"><rect class="o" width="240" height="243" rx="10"/><rect class="p" x="0.25" y="0.25" width="239.5" height="242.5" rx="9.75"/></g></g><text class="l" transform="translate(851 682)"><tspan x="0" y="0">Mi perfil en LinkedIn</tspan></text><path class="e" d="M130,32H10A9.989,9.989,0,0,0,0,42V162a9.989,9.989,0,0,0,10,10H130a9.989,9.989,0,0,0,10-10V42A9.989,9.989,0,0,0,130,32ZM42,152H22V85H42v67ZM32,76A12,12,0,1,1,44,64,11.983,11.983,0,0,1,32,76Zm88,76H99V120c0-7.75.625-18-10-18-10.812,0-13,8.281-13,17v33H55V85H75v9h1c2.781-5.25,8.906-10,19-10,21,0,25,13,25,31Z" transform="translate(870 471)"/></g><g transform="translate(20 -26)"><g class="s" transform="matrix(1, 0, 0, 1, -20, 26)"><g class="k" transform="translate(1189 446)"><rect class="o" width="240" height="243" rx="10"/><rect class="p" x="0.25" y="0.25" width="239.5" height="242.5" rx="9.75"/></g></g><text class="l" transform="translate(1207 682)"><tspan x="0" y="0">Mi perfil en GitHub</tspan></text><path class="e" d="M125,32H15A15,15,0,0,0,0,47V157a15,15,0,0,0,15,15H125a15,15,0,0,0,15-15V47A15,15,0,0,0,125,32ZM87,152a3.281,3.281,0,0,1-4-3V132c0-4.875-1.094-7.375-3-9,11.563-1.281,23-3.031,23-23,0-5.687-1.687-8.344-5-12,.531-1.344,1.844-7.812-1-15-4.344-1.344-14,6-14,6a48.861,48.861,0,0,0-13-2,48.861,48.861,0,0,0-13,2s-9.656-7.344-14-6c-2.844,7.156-1.563,13.625-1,15-3.312,3.656-5,6.313-5,12,0,19.875,12.437,21.719,24,23a11.789,11.789,0,0,0-4,7c-2.969,1.344-10.469,3-15-5a9.984,9.984,0,0,0-8-5c-5.062-.062,0,3,0,3,3.375,1.562,6,8,6,8,3.031,9.281,17,6,17,6v12c0,1.344-.344,3.469-3,3-20.625-6.906-35-27.062-35-50,0-28.687,21.312-50,50-50s52,21.313,52,50C121.031,124.937,107.625,145.125,87,152ZM56,133c-.594.125-.937-.594-1-1-.062-.469.406-.875,1-1,.594-.062.937.594,1,1C57.094,132.406,56.625,132.875,56,133Zm-3,0c0,.406-.375,0-1,0-.687.063-1,.469-1,0a1.046,1.046,0,0,1,1-1A.987.987,0,0,1,53,133Zm-4-1a2.47,2.47,0,0,1-2,1c-.594-.125-.125-.594,0-1s.469-1.125,1-1C48.625,131.188,49.156,131.594,49,132Zm-4-1c-.281.344-.531-.531-1-1-.469-.406-1.312-.719-1-1a1.787,1.787,0,0,1,2,0A2.062,2.062,0,0,1,45,131Zm-3-3c-.281.188-.656-.531-1-1s-.344-.781,0-1c.344-.281.719-.469,1,0C42.344,126.469,42.344,127.75,42,128Zm-2-3c-.281.281-.656-.687-1-1-.344-.406-.281-.781,0-1,.281-.281.656.688,1,1C40.344,124.406,40.281,124.781,40,125Zm-2-3c-.125.281-.656.219-1,0-.406-.187-.125.281,0,0,.125-.188-.406-.156,0,0C37.406,122.219,38.125,121.75,38,122Z" transform="translate(1220 471)"/></g><g transform="translate(20 -26)"><g class="r" transform="matrix(1, 0, 0, 1, -20, 26)"><g class="k" transform="translate(491 446)"><rect class="o" width="240" height="243" rx="10"/><rect class="p" x="0.25" y="0.25" width="239.5" height="242.5" rx="9.75"/></g></g><text class="l" transform="translate(506 682)"><tspan x="0" y="0">Mi curriculum vitae</tspan></text><path class="e" d="M70,37V0H8C3.844,0,0,3.363,0,7V133c0,3.637,3.844,7,8,7H113a6.958,6.958,0,0,0,7-7V44H78C73.875,44,70,40.609,70,37Zm20,65c0,1.8-1.937,3-4,3H34c-2.063,0-4-1.2-4-3v-2a4.412,4.412,0,0,1,4-4H86a4.412,4.412,0,0,1,4,4Zm0-18a4.412,4.412,0,0,1-4,4H34a4.412,4.412,0,0,1-4-4V82c0-1.8,1.937-3,4-3H86c2.063,0,4,1.2,4,3Zm0-19v2c0,1.8-1.937,3-4,3H34c-2.063,0-4-1.2-4-3V65a4.412,4.412,0,0,1,4-4H86A4.412,4.412,0,0,1,90,65Zm30-32v2H80V0h2a7.347,7.347,0,0,1,5,2l31,27A4.784,4.784,0,0,1,120,33Z" transform="translate(531 503)"/></g><text class="m" transform="translate(40 41)"><tspan x="0" y="0" xml:space="preserve"> Carlos Alberto Arroyo Martínez</tspan></text><text class="n" transform="translate(760 1055)"><tspan x="0" y="0" xml:space="preserve">Copyright © 2019  Carlos Alberto Arroyo Martínez.</tspan></text></g></svg>