<svg xmlns="http://www.w3.org/2000/svg" xmlns:xlink="http://www.w3.org/1999/xlink" width="1920" height="1080" viewBox="0 0 1920 1080"><defs><style>.a{clip-path:url(#b);}.b{fill:#37474f;}.c,.d,.f,.g,.h{fill:#fff;}.c,.d,.f,.j{font-size:14.4px;}.c,.d,.h,.k,.m{font-family:Roboto-Bold, Roboto;font-weight:700;}.c{opacity:0.7;}.e,.j{fill:#3b86ff;}.f,.j,.l,.n,.o{font-family:Roboto-Regular, Roboto;}.h,.m{font-size:25px;}.i{fill:#b1b1b1;}.k,.l,.n{fill:#43425d;}.k{font-size:35px;}.l,.n,.o{font-size:18px;}.m{fill:#4d4f5c;}.n{opacity:0.9;}.o{fill:#707070;}.p{fill:#f9f9f9;}</style><clipPath id="b"><rect width="1920" height="1080"/></clipPath></defs><g id="a" class="a"><rect class="p" width="1920" height="1080"/><rect class="b" width="1920" height="64"/><text class="c" transform="translate(1475 37)"><tspan x="0" y="0">Acerca de mi</tspan></text><text class="d" transform="translate(1589 37)"><tspan x="0" y="0">Portafolio</tspan></text><text class="c" transform="translate(1682 37)"><tspan x="0" y="0">Contacto</tspan></text><g transform="translate(-3)"><rect class="e" width="130" height="30" rx="15" transform="translate(1773 17)"/><text class="f" transform="translate(1793 37)"><tspan x="0" y="0">Mi GitHub</tspan></text><path class="g" d="M6.69,24.1c0,.083-.093.149-.21.149-.133.012-.226-.054-.226-.149s.093-.149.21-.149S6.69,24.009,6.69,24.1Zm-1.254-.186c-.028.083.052.178.173.2a.187.187,0,0,0,.25-.083c.024-.083-.052-.178-.173-.215A.2.2,0,0,0,5.435,23.918Zm1.782-.07c-.117.029-.2.108-.185.2s.117.136.238.108.2-.108.185-.19S7.335,23.835,7.218,23.848ZM9.871,8A9.794,9.794,0,0,0,0,18.091a10.353,10.353,0,0,0,6.835,9.892c.516.1.7-.232.7-.5s-.012-1.671-.012-2.539c0,0-2.823.62-3.415-1.232,0,0-.46-1.2-1.121-1.514,0,0-.923-.649.065-.637A2.12,2.12,0,0,1,4.6,22.628a2.1,2.1,0,0,0,2.94.864A2.321,2.321,0,0,1,8.19,22.1c-2.254-.256-4.528-.591-4.528-4.57a3.176,3.176,0,0,1,.952-2.436,4,4,0,0,1,.1-2.808C5.56,12.016,7.5,13.4,7.5,13.4a9.3,9.3,0,0,1,5.065,0s1.94-1.39,2.782-1.117a4,4,0,0,1,.1,2.808,3.252,3.252,0,0,1,1.04,2.436c0,3.991-2.375,4.309-4.629,4.57a2.479,2.479,0,0,1,.685,1.919c0,1.394-.012,3.118-.012,3.457,0,.269.185.6.7.5A10.26,10.26,0,0,0,20,18.091,10.008,10.008,0,0,0,9.871,8ZM3.919,22.264c-.052.041-.04.136.028.215s.157.1.21.041.04-.136-.028-.215S3.972,22.21,3.919,22.264Zm-.435-.335c-.028.054.012.12.093.161a.118.118,0,0,0,.173-.029c.028-.054-.012-.12-.093-.161C3.577,21.875,3.512,21.887,3.484,21.929ZM4.79,23.4c-.065.054-.04.178.052.256.093.1.21.108.262.041s.028-.178-.052-.256C4.964,23.347,4.843,23.335,4.79,23.4Zm-.46-.608c-.065.041-.065.149,0,.244s.173.136.226.1a.192.192,0,0,0,0-.256c-.056-.1-.161-.136-.226-.083Z" transform="translate(1864 14)"/></g><text class="h" transform="translate(40 41)"><tspan x="0" y="0" xml:space="preserve"> Carlos Alberto Arroyo Martínez</tspan></text><rect class="i" width="674" height="460" transform="translate(1106 173)"/><g transform="translate(0 21)"><g transform="translate(1207 150)"><rect class="e" width="185" height="30" rx="15" transform="translate(367 412)"/><text class="f" transform="translate(460 432)"><tspan x="-33.613" y="0">Live Demo</tspan></text></g><rect class="g" width="185" height="30" rx="15" transform="translate(1366 562)"/><text class="j" transform="translate(1459 582)"><tspan x="-34.288" y="0">Ver codigo</tspan></text></g><text class="k" transform="translate(140 206)"><tspan x="0" y="0">Metals of Art de Mexico</tspan></text><text class="l" transform="translate(140 248)"><tspan x="0" y="0">Front-end and Back-end Web Development</tspan></text><g transform="translate(0.157 -151)"><g transform="translate(-0.157 370)"><text class="m" transform="translate(140 441)"><tspan x="26.96" y="24">Periodo de tiempo</tspan></text><text class="n" transform="translate(140.157 487)"><tspan x="70.647" y="17">Android Nativo</tspan><tspan x="10.987" y="47">Progressive Web Applications</tspan><tspan x="96.483" y="77">Xamarin</tspan></text></g><g transform="translate(276 370)"><text class="m" transform="translate(140 441)"><tspan x="53.45" y="24">Herramientas</tspan></text><text class="n" transform="translate(140.157 487)"><tspan x="70.569" y="17">Android Nativo</tspan><tspan x="10.909" y="47">Progressive Web Applications</tspan><tspan x="96.404" y="77">Xamarin</tspan></text></g><g transform="translate(552 370)"><text class="m" transform="translate(140 441)"><tspan x="14.991" y="24">Equipo de desarrollo</tspan></text><text class="n" transform="translate(140.157 487)"><tspan x="70.647" y="17">Android Nativo</tspan><tspan x="10.987" y="47">Progressive Web Applications</tspan><tspan x="96.483" y="77">Xamarin</tspan></text></g></g><text class="l" transform="translate(140 302)"><tspan x="0" y="0">Excepteur sint occaecat cupidatat non proident, sunt in culpa qui officia deserunt mollit anim id est </tspan><tspan x="0" y="30">eopksio laborum. Sed ut perspiciatis unde omnis istpoe natus error sit voluptatem accusantium </tspan><tspan x="0" y="60">doloremque eopsloi laudantium, totam rem aperiam, eaque ipsa quae ab illo inventore quasi </tspan><tspan x="0" y="90">architecto beatae vitae dicta sunot explicabo. Nemo ernim ipsam voluptatem </tspan></text><text class="m" transform="translate(140 429)"><tspan x="0" y="24">Technologies</tspan></text><text class="n" transform="translate(140 475)"><tspan x="0" y="17">Excepteur sint occaecat cupidatat non proident, sunt in culpa qui officia deserunt mollit anim id est </tspan><tspan x="0" y="47">eopksio laborum. Sed ut perspiciatis unde omnis istpoe natus error sit voluptatem accusantium </tspan></text><g transform="translate(196)"><path class="e" d="M23.413,64.364c0,.289-.325.521-.734.521-.466.043-.79-.188-.79-.521,0-.289.325-.521.734-.521C23.046,63.8,23.413,64.031,23.413,64.364Zm-4.389-.651c-.1.289.183.622.607.709a.655.655,0,0,0,.875-.289c.085-.289-.183-.622-.607-.753A.717.717,0,0,0,19.024,63.713Zm6.238-.246c-.409.1-.692.376-.649.709.042.289.409.478.833.376s.692-.376.649-.666S25.671,63.423,25.262,63.466ZM34.548,8C14.974,8,0,23.242,0,43.318,0,59.37,9.851,73.107,23.921,77.941c1.806.333,2.442-.811,2.442-1.751,0-.9-.042-5.848-.042-8.887,0,0-9.879,2.171-11.954-4.313,0,0-1.609-4.212-3.923-5.3,0,0-3.232-2.273.226-2.229A7.419,7.419,0,0,1,16.117,59.2c3.091,5.587,8.27,3.981,10.288,3.025a8.125,8.125,0,0,1,2.258-4.878c-7.889-.9-15.849-2.07-15.849-15.994a11.115,11.115,0,0,1,3.331-8.526A14,14,0,0,1,16.512,23c2.95-.941,9.738,3.908,9.738,3.908a32.538,32.538,0,0,1,17.726,0S50.764,22.04,53.714,23a14,14,0,0,1,.367,9.828c2.258,2.562,3.641,4.559,3.641,8.526,0,13.968-8.312,15.082-16.2,15.994,1.3,1.143,2.4,3.315,2.4,6.716,0,4.878-.042,10.914-.042,12.1,0,.941.649,2.084,2.442,1.751C60.431,73.107,70,59.37,70,43.318A35.028,35.028,0,0,0,34.548,8ZM13.718,57.923c-.183.145-.141.478.1.753.226.232.55.333.734.145.183-.145.141-.478-.1-.753C14.226,57.836,13.9,57.735,13.718,57.923ZM12.194,56.75c-.1.188.042.42.325.565a.414.414,0,0,0,.607-.1c.1-.188-.042-.42-.325-.565C12.518,56.562,12.292,56.606,12.194,56.75ZM16.766,61.9c-.226.188-.141.622.183.9.325.333.734.376.917.145.183-.188.1-.622-.183-.9C17.373,61.715,16.95,61.672,16.766,61.9Zm-1.609-2.128c-.226.145-.226.521,0,.854s.607.478.79.333a.673.673,0,0,0,0-.9C15.75,59.732,15.383,59.587,15.157,59.775Z" transform="translate(184 548)"/><path class="e" d="M23.413,64.364c0,.289-.325.521-.734.521-.466.043-.79-.188-.79-.521,0-.289.325-.521.734-.521C23.046,63.8,23.413,64.031,23.413,64.364Zm-4.389-.651c-.1.289.183.622.607.709a.655.655,0,0,0,.875-.289c.085-.289-.183-.622-.607-.753A.717.717,0,0,0,19.024,63.713Zm6.238-.246c-.409.1-.692.376-.649.709.042.289.409.478.833.376s.692-.376.649-.666S25.671,63.423,25.262,63.466ZM34.548,8C14.974,8,0,23.242,0,43.318,0,59.37,9.851,73.107,23.921,77.941c1.806.333,2.442-.811,2.442-1.751,0-.9-.042-5.848-.042-8.887,0,0-9.879,2.171-11.954-4.313,0,0-1.609-4.212-3.923-5.3,0,0-3.232-2.273.226-2.229A7.419,7.419,0,0,1,16.117,59.2c3.091,5.587,8.27,3.981,10.288,3.025a8.125,8.125,0,0,1,2.258-4.878c-7.889-.9-15.849-2.07-15.849-15.994a11.115,11.115,0,0,1,3.331-8.526A14,14,0,0,1,16.512,23c2.95-.941,9.738,3.908,9.738,3.908a32.538,32.538,0,0,1,17.726,0S50.764,22.04,53.714,23a14,14,0,0,1,.367,9.828c2.258,2.562,3.641,4.559,3.641,8.526,0,13.968-8.312,15.082-16.2,15.994,1.3,1.143,2.4,3.315,2.4,6.716,0,4.878-.042,10.914-.042,12.1,0,.941.649,2.084,2.442,1.751C60.431,73.107,70,59.37,70,43.318A35.028,35.028,0,0,0,34.548,8ZM13.718,57.923c-.183.145-.141.478.1.753.226.232.55.333.734.145.183-.145.141-.478-.1-.753C14.226,57.836,13.9,57.735,13.718,57.923ZM12.194,56.75c-.1.188.042.42.325.565a.414.414,0,0,0,.607-.1c.1-.188-.042-.42-.325-.565C12.518,56.562,12.292,56.606,12.194,56.75ZM16.766,61.9c-.226.188-.141.622.183.9.325.333.734.376.917.145.183-.188.1-.622-.183-.9C17.373,61.715,16.95,61.672,16.766,61.9Zm-1.609-2.128c-.226.145-.226.521,0,.854s.607.478.79.333a.673.673,0,0,0,0-.9C15.75,59.732,15.383,59.587,15.157,59.775Z" transform="translate(286 548)"/><path class="e" d="M23.413,64.364c0,.289-.325.521-.734.521-.466.043-.79-.188-.79-.521,0-.289.325-.521.734-.521C23.046,63.8,23.413,64.031,23.413,64.364Zm-4.389-.651c-.1.289.183.622.607.709a.655.655,0,0,0,.875-.289c.085-.289-.183-.622-.607-.753A.717.717,0,0,0,19.024,63.713Zm6.238-.246c-.409.1-.692.376-.649.709.042.289.409.478.833.376s.692-.376.649-.666S25.671,63.423,25.262,63.466ZM34.548,8C14.974,8,0,23.242,0,43.318,0,59.37,9.851,73.107,23.921,77.941c1.806.333,2.442-.811,2.442-1.751,0-.9-.042-5.848-.042-8.887,0,0-9.879,2.171-11.954-4.313,0,0-1.609-4.212-3.923-5.3,0,0-3.232-2.273.226-2.229A7.419,7.419,0,0,1,16.117,59.2c3.091,5.587,8.27,3.981,10.288,3.025a8.125,8.125,0,0,1,2.258-4.878c-7.889-.9-15.849-2.07-15.849-15.994a11.115,11.115,0,0,1,3.331-8.526A14,14,0,0,1,16.512,23c2.95-.941,9.738,3.908,9.738,3.908a32.538,32.538,0,0,1,17.726,0S50.764,22.04,53.714,23a14,14,0,0,1,.367,9.828c2.258,2.562,3.641,4.559,3.641,8.526,0,13.968-8.312,15.082-16.2,15.994,1.3,1.143,2.4,3.315,2.4,6.716,0,4.878-.042,10.914-.042,12.1,0,.941.649,2.084,2.442,1.751C60.431,73.107,70,59.37,70,43.318A35.028,35.028,0,0,0,34.548,8ZM13.718,57.923c-.183.145-.141.478.1.753.226.232.55.333.734.145.183-.145.141-.478-.1-.753C14.226,57.836,13.9,57.735,13.718,57.923ZM12.194,56.75c-.1.188.042.42.325.565a.414.414,0,0,0,.607-.1c.1-.188-.042-.42-.325-.565C12.518,56.562,12.292,56.606,12.194,56.75ZM16.766,61.9c-.226.188-.141.622.183.9.325.333.734.376.917.145.183-.188.1-.622-.183-.9C17.373,61.715,16.95,61.672,16.766,61.9Zm-1.609-2.128c-.226.145-.226.521,0,.854s.607.478.79.333a.673.673,0,0,0,0-.9C15.75,59.732,15.383,59.587,15.157,59.775Z" transform="translate(388 548)"/></g><text class="o" transform="translate(760 1055)"><tspan x="0" y="0" xml:space="preserve">Copyright © 2019  Carlos Alberto Arroyo Martínez.</tspan></text></g></svg>